<svg width="1000" height="1000" viewBox="0 0 1000 1000" fill="none" xmlns="http://www.w3.org/2000/svg">
<path d="M297.923 100H501.143L702.51 100C849.093 100 944.16 218.427 878.023 318.64L803.196 432.022C774.988 474.765 774.988 525.235 803.196 567.978L878.023 681.359C944.16 781.573 849.093 900 702.51 900H297.923C151.786 900 56.6938 782.228 121.951 682.059L240.556 500L121.951 317.941C56.6938 217.772 151.786 100 297.923 100Z" fill="url(#paint0_linear_1_155)"/>
<path d="M878.023 318.64L894.716 329.657L894.716 329.657L878.023 318.64ZM803.196 432.022L819.888 443.039L819.888 443.039L803.196 432.022ZM803.196 567.978L819.888 556.961L819.888 556.961L803.196 567.978ZM878.023 681.359L894.716 670.343L894.716 670.343L878.023 681.359ZM240.556 500L257.314 510.917L257.314 510.917L240.556 500ZM121.951 682.059L105.193 671.142L105.193 671.142L121.951 682.059ZM121.951 317.941L138.708 307.024L138.708 307.024L121.951 317.941ZM297.923 80H501.143V120H297.923V80ZM501.143 80L702.51 80V120L501.143 120V80ZM894.716 329.657L819.888 443.039L786.503 421.006L861.331 307.624L894.716 329.657ZM819.888 556.961L894.716 670.343L861.331 692.376L786.503 578.994L819.888 556.961ZM517.901 110.917L257.314 510.917L223.799 489.083L484.386 89.083L517.901 110.917ZM257.314 510.917L138.708 692.976L105.193 671.142L223.799 489.083L257.314 510.917ZM138.708 307.024L257.314 489.083L223.799 510.917L105.193 328.858L138.708 307.024ZM819.888 443.039C796.09 479.099 796.09 520.901 819.888 556.961L786.503 578.994C753.885 529.569 753.885 470.431 786.503 421.006L819.888 443.039ZM297.923 920C219.681 920 153.299 888.462 115.103 841.157C76.397 793.22 67.3176 729.281 105.193 671.142L138.708 692.976C111.327 735.007 117.165 780.038 146.225 816.029C175.796 852.652 230.028 880 297.923 880V920ZM702.51 80C780.988 80 847.497 111.713 885.633 159.22C924.287 207.372 933.083 271.521 894.716 329.657L861.331 307.624C889.1 265.546 883.432 220.375 854.44 184.26C824.931 147.5 770.615 120 702.51 120V80ZM894.716 670.343C933.083 728.479 924.287 792.628 885.633 840.78C847.497 888.287 780.988 920 702.51 920V880C770.615 880 824.931 852.5 854.44 815.74C883.432 779.625 889.1 734.454 861.331 692.376L894.716 670.343ZM297.923 120C230.028 120 175.796 147.348 146.225 183.971C117.165 219.962 111.327 264.994 138.708 307.024L105.193 328.858C67.3176 270.719 76.397 206.78 115.103 158.843C153.299 111.538 219.681 80 297.923 80V120ZM702.51 920H297.923V880H702.51V920Z" fill="#065050"/>
<path d="M702.514 900H499.293H297.926C151.343 900 56.2761 781.573 122.413 681.36L197.24 567.978C225.449 525.235 225.449 474.765 197.24 432.022L122.413 318.64C56.2761 218.427 151.343 100 297.926 100L702.514 100C848.65 100 943.742 217.772 878.485 317.941L759.88 500L878.485 682.059C943.742 782.228 848.65 900 702.514 900Z" fill="url(#paint1_linear_1_155)"/>
<path d="M122.413 681.36L105.72 670.343L105.72 670.343L122.413 681.36ZM197.24 567.978L180.548 556.961L180.548 556.961L197.24 567.978ZM197.24 432.022L180.548 443.039L180.548 443.039L197.24 432.022ZM122.413 318.64L105.72 329.657L105.72 329.657L122.413 318.64ZM878.485 317.941L861.728 307.024L861.728 307.024L878.485 317.941ZM878.485 682.059L895.243 671.142L895.243 671.142L878.485 682.059ZM702.514 920H499.293V880H702.514V920ZM499.293 920H297.926V880H499.293V920ZM105.72 670.343L180.548 556.961L213.933 578.994L139.105 692.376L105.72 670.343ZM180.548 443.039L105.72 329.657L139.105 307.624L213.933 421.006L180.548 443.039ZM482.535 889.083L743.122 489.083L776.638 510.917L516.051 910.917L482.535 889.083ZM743.122 489.083L861.728 307.024L895.243 328.858L776.638 510.917L743.122 489.083ZM861.728 692.976L743.122 510.917L776.638 489.083L895.243 671.142L861.728 692.976ZM180.548 556.961C204.346 520.901 204.346 479.099 180.548 443.039L213.933 421.006C246.551 470.431 246.551 529.569 213.933 578.994L180.548 556.961ZM702.514 80C780.755 80 847.138 111.538 885.333 158.843C924.039 206.78 933.119 270.719 895.243 328.858L861.728 307.024C889.109 264.993 883.271 219.962 854.211 183.971C824.64 147.348 770.409 120 702.514 120V80ZM297.926 920C219.448 920 152.939 888.287 114.803 840.78C76.1494 792.628 67.3532 728.479 105.72 670.343L139.105 692.376C111.336 734.454 117.005 779.625 145.996 815.74C175.505 852.5 229.821 880 297.926 880V920ZM105.72 329.657C67.3532 271.521 76.1494 207.372 114.803 159.22C152.939 111.713 219.448 80 297.926 80V120C229.821 120 175.505 147.5 145.996 184.26C117.005 220.375 111.336 265.546 139.105 307.624L105.72 329.657ZM702.514 880C770.409 880 824.64 852.652 854.211 816.029C883.271 780.038 889.109 735.006 861.728 692.976L895.243 671.142C933.119 729.281 924.039 793.22 885.333 841.157C847.138 888.462 780.755 920 702.514 920V880ZM297.926 80L702.514 80V120L297.926 120V80Z" fill="#065050"/>
<defs>
<linearGradient id="paint0_linear_1_155" x1="159.286" y1="189.302" x2="381.839" y2="329.962" gradientUnits="userSpaceOnUse">
<stop offset="0.861341" stop-color="#F3A754"/>
<stop offset="1" stop-color="#008B8A"/>
</linearGradient>
<linearGradient id="paint1_linear_1_155" x1="889.056" y1="850.506" x2="163.476" y2="312.955" gradientUnits="userSpaceOnUse">
<stop offset="0.315" stop-color="#F3A854"/>
<stop offset="0.33723" stop-color="#008B8A"/>
<stop offset="0.824316" stop-color="#008B8A" stop-opacity="0"/>
</linearGradient>
</defs>
</svg>
